<?xml version="1.0" encoding="utf-8"?>
<!-- GravityWP brand astronaut. Used as the Hero logo. -->
<svg xmlns="http://www.w3.org/2000/svg" xmlns:xlink="http://www.w3.org/1999/xlink"
	 viewBox="78.419 44.507 336.689 484.797" enable-background="new 78.419 44.507 336.689 484.797" xml:space="preserve">
<g id="Layer_2">
	<g id="_105826304">
		<path id="_105823904" fill="#28353C" d="M180.381,384.469c-14.067-9.636,9.249-61.991,14.245-73.412
			c4.685-10.706,25.837-56.189,34.636-62.315c12.308-8.573,87.753,16.085,94.755,29.103c5.283,9.822-14.274,63.494-18.253,74.361
			c-4.45,12.149-22.61,60.426-31.799,67.924c-9.43,7.692-41.363-7.811-50.648-12.238c-9.489-4.522-18.85-9.416-28.026-14.543
			C190.726,390.8,184.452,387.528,180.381,384.469L180.381,384.469z"/>
		<path id="_105819464" fill="#28353C" d="M182.061,382.07c5.431,4.077,77.834,45.757,90.052,35.789
			c12.219-9.968,55.659-126.849,49.324-138.628c-6.335-11.778-80.095-35.336-90.504-28.087
			C220.525,258.392,164.867,370.292,182.061,382.07z"/>
		<path id="_105816560" fill="#354C58" d="M279.806,262.922c0,0,29.864,8.155,32.58,17.669
			c2.716,9.514-36.654,125.038-44.347,130.02c-7.693,4.982-32.129-9.514-32.129-9.514L279.806,262.922z"/>
		<path id="_105813032" fill="#E3E3E4" d="M145.375,420.764c-1.782,12.469-4.442,25.635-7.223,37.897
			c-1.6,7.057-7.717,37.611-16.977,38.229c-13.91,0.929-21.993-6.582-24.348-20.087c-2.841-16.301,10.746-46.725,24.594-55.736
			c5.643-3.673,17.091-8.598,23.085-2.827l1.081,1.041l-0.213,1.482V420.764z"/>
		<path id="_105820016" fill="#FFFFFF" d="M142.475,420.35c0,0-5.882-5.663-19.457,3.171c-13.576,8.834-25.793,38.507-23.305,52.778
			c2.487,14.272,11.085,18.349,21.267,17.669C131.162,493.287,142.475,420.35,142.475,420.35L142.475,420.35z"/>
		<path id="_105818816" fill="#E3E3E4" d="M148.142,417.002l9.966,19.708l-0.038,0.773c-0.379,7.755-0.955,15.583-1.712,23.309
			c-0.612,6.232-1.348,14.249-3.161,20.21c-2.734,8.998-14.801,15.03-23.448,16.269c-7.75,1.11-15.4-0.659-21.192-6.164
			c-15.252-14.493,2.039-51.312,13.142-64.28c5.733-6.695,16.093-12.936,25.24-10.187L148.142,417.002L148.142,417.002z"/>
		<path id="_105815720" fill="#FFFFFF" d="M146.096,419.442c0,0-11.313-3.398-22.174,9.288
			c-10.86,12.685-26.699,47.567-13.35,60.253c13.35,12.685,36.654,1.584,39.821-8.835c3.168-10.419,4.751-42.811,4.751-42.811
			L146.096,419.442z"/>
		<path id="_105824432" fill="#E3E3E4" d="M125.615,431.277c-8.923,10.982-25.053,44.154-13.024,55.584
			c2.801,2.66,6.214,4.194,10.031,4.69c3.067,0.398,7.013-0.072,10.869-1.251c-5.79-4.376-13.201-12.436-13.34-25.1
			c-0.063-5.908,1.403-11.894,3.533-17.429c-0.533-3.994-0.186-8.116,0.678-12.033C124.651,434.431,125.073,432.907,125.615,431.277
			z"/>
		<path id="_105813320" fill="#337497" d="M139.239,487.84c1.816-6.655,3.169-14.2,4.651-20.975
			c3.176-14.495,6.331-28.994,9.485-43.492c4.698-21.6,9.386-43.2,14.066-64.803l0.948-4.368l38.248,27.539l-0.448,1.906
			c-4.873,20.668-9.326,41.706-13.092,62.593c-2.993,16.598-5.875,33.437-8.125,50.157l-0.398,2.949l-2.942-0.444
			c-6.719-1.014-13.436-2.078-20.139-3.19c-4.648-0.77-9.311-1.557-13.933-2.463C145.045,492.756,137.743,492.071,139.239,487.84
			L139.239,487.84z"/>
		<path id="_105819368" fill="#65A9CC" d="M203.339,382.975c0,0-7.691,32.62-13.122,62.746c-5.432,30.125-8.146,50.285-8.146,50.285
			s-40.501-6.115-40.048-7.248c0.453-1.134,28.283-129.567,28.283-129.567L203.339,382.975L203.339,382.975z"/>
		<path id="_105818312" fill="#4A99C4" d="M150.75,463.72l-1.105,5.03c2.115,0.108,4.224,0.32,6.324,0.617
			c10.08,1.429,18.985,4.691,25.507,10.307c1.049-6.771,2.178-13.538,3.346-20.286C172.75,461.305,160.425,462.74,150.75,463.72z"/>
		<path id="_105824864" fill="#337497" d="M196.653,411.009l6.651-21.451l51.901-11.89l-1.305,4.728
			c-4.104,14.886-16.064,52.635-27.411,62.17c-11.981,10.067-71.499,16.006-88.979,17.437l-0.924,0.076l-0.797-0.469
			c-3.489-2.048-6.133-4.956-7.721-8.684c-2.213-5.188-2.041-11.141-0.848-16.555c1.267-5.743,6.205-18.397,12.038-20.964
			c3.902-1.72,10.021-0.941,14.233-0.756c9.777,0.43,19.149-0.151,28.851-1.506C184.551,412.838,190.651,412.022,196.653,411.009z"
			/>
		<path id="_105816152" fill="#65A9CC" d="M137.272,459.085c0,0,74.663-6.113,87.334-16.761
			c12.671-10.647,26.472-60.706,26.472-60.706l-45.477,10.419l-6.109,19.706l12.444-1.584c0,0-1.584,2.037-29.188,5.889
			c-27.604,3.85-36.652-0.451-42.31,2.039C134.783,420.578,120.302,449.119,137.272,459.085L137.272,459.085z"/>
		<path id="_105820112" fill="#83BAD7" d="M138.002,456.083c16.904-1.434,74.596-7.495,84.721-16.003
			c6.729-5.653,14.346-24.639,19.708-40.454c-1.614-1.21-2.979-2.777-4.122-4.621c-3.795,14.193-10.712,34.604-20.188,40.067
			c-13.556,7.813-74.265,12.642-85.36,13.467C133.522,451.506,135.137,454.15,138.002,456.083L138.002,456.083z"/>
		<path id="_105819224" fill="#E3E3E4" d="M186.76,502.951c1.953,0.856,3.564,2.736,3.564,4.947
			c0,20.312-58.826,16.814-71.866,14.316c-6.766-1.297-17.02-4.494-17.585-12.814c-0.251-3.684,1.035-8.281,2.964-11.457
			l1.293-2.131l2.311,0.936c19.575,7.932,56.804,7.777,77.895,5.968l0.742-0.064L186.76,502.951L186.76,502.951z"/>
		<path id="_105815696" fill="#FFFFFF" d="M106.341,499.462c0,0-2.886,4.755-2.547,9.739c0.339,4.983,6.053,8.381,15.216,10.137
			c10.177,1.95,68.386,5.646,68.386-11.439c0-1.473-1.81-2.265-1.81-2.265S132.756,510.164,106.341,499.462z"/>
		<path id="_105816368" fill="#E3E3E4" d="M189.358,506.308c-7.636,13.198-66.041,9.317-79.05,4.876
			c-5.324-1.815-10.412-5.425-8.921-11.77c1.967-8.369,9.32-15.834,16.411-20.224c11.32-7.01,24.724-8.772,37.758-6.923
			c19.169,2.719,33.439,12.099,34.192,32.464l0.031,0.845L189.358,506.308z"/>
		<path id="_105821096" fill="#FFFFFF" d="M186.822,504.839c-0.227-6.115-1.359-25.372-31.677-29.674
			c-30.318-4.303-48.191,13.365-50.907,24.917c-0.932,3.97,1.957,6.603,7.017,8.329C122.913,512.39,180.343,516.044,186.822,504.839
			L186.822,504.839z"/>
		<path id="_105824264" fill="#E3E3E4" d="M148.12,477.479c-9.516-0.336-19.01,1.596-27.236,6.69
			c-5.697,3.525-12.203,9.816-13.794,16.583c-0.661,2.817,3.055,4.186,5.111,4.889c2.339,0.799,5.423,1.425,8.85,1.925
			c1.053-6.698,3.87-14.844,10.866-21.3C136.167,482.344,142.004,479.519,148.12,477.479z"/>
		<path id="_105820688" fill="#337497" d="M211.2,268.194c-2.152,12.02-5.092,27.548-10.362,38.65
			c-2.752,5.797-5.485,9.086-10.627,12.784c-1.347,0.969-2.688,1.911-3.93,3.017c-5.385,4.792-11.096,12.601-15.761,18.256
			c-4.617,5.6-12.21,14.999-18.445,18.568c-0.788,0.449-1.623,0.806-2.49,1.066c-12.328,3.706-27.672-11.705-28.582-23.545
			c-0.22-2.861,0.132-5.639,1.294-8.277c3.982-9.043,19.485-15.676,27.855-20.129c8.706-4.636,17.994-11.889,25.787-17.969
			c10.331-8.059,20.576-16.52,30.452-25.142l6.276-5.482L211.2,268.194L211.2,268.194z"/>
		<path id="_105817136" fill="#4A99C4" d="M208.316,267.679c0,0-38.915,33.977-56.79,43.49
			c-17.875,9.516-28.508,13.818-27.604,25.598c0.904,11.778,17.193,25.597,26.697,20.16c9.504-5.438,25.569-29.221,33.713-36.47
			C192.477,313.209,199.718,315.7,208.316,267.679z"/>
		<path id="_105824648" fill="#337497" d="M209.361,256.935c21.474-3.395,51.062,6.574,69.638,17.014l2.295,1.289l-1.038,2.42
			c-6.45,15.035-10.401,32.435-13.629,48.452c-3.047,15.11-5.493,30.321-8.387,45.453c-7.359,38.472-62.939,39.748-83.627,13.483
			c-4.681-5.945-7.898-11.714-7.987-19.199c-0.191-15.962,5.868-35.757,10.988-50.685c4.059-11.837,18.738-50.697,30.7-57.846
			l0.486-0.291L209.361,256.935z"/>
		<path id="_105825488" fill="#65A9CC" d="M209.818,259.827c0,0-12.749,7.619-29.434,56.282
			c-16.686,48.663-12.016,62.175-6.865,68.71c6.393,8.118,16.447,14.857,26.179,17.571c23.05,6.433,50.588-4.831,55.666-31.38
			c5.475-28.614,10.956-68.299,22.201-94.509C277.564,276.502,239.537,255.128,209.818,259.827z"/>
		<path id="_105824336" fill="#4A99C4" d="M236.298,394.503c0.421-0.273,0.831-0.55,1.241-0.839
			c-6.932-13.085-4.574-37.511-2.889-49.13c0.465-3.216,1.44-6.918,2.979-10.383l-2.086-1.008c0,0-11.54,29.9-9.051,45.529
			C227.753,386.595,232.209,391.544,236.298,394.503z M265.268,304.58c1.391-5.48,2.924-10.855,4.643-16.059
			c-1.413,0.351-2.833,0.695-4.25,1.024c-1.882,3.422-2.56,7.498-1.568,11.663C264.34,302.246,264.726,303.428,265.268,304.58
			L265.268,304.58z M228.408,295.585c-0.379,6.383,0.002,14.15,2.609,21.476c2.149,6.046,5.145,10.702,8.083,14.173
			c1.016-1.773,2.2-3.41,3.565-4.797c-2.991-4.351-5.037-9.345-6.091-14.84c-1.05-5.475-0.46-11.225,1.235-16.931
			C234.754,295.04,231.614,295.346,228.408,295.585z"/>
		<path id="_105822848" fill="#528AA6" d="M222.038,308.39c0.776,0.358,1.525,0.768,2.236,1.223c3.101-1.709,8.571-4.756,9.479-4.41
			c0.906,0.346,3.643,3.609,3.643,3.609s2.67,3.463,2.802,4.44c0.132,0.978-4.583,5.44-7.266,8.006
			c0.267,0.886,0.477,1.806,0.624,2.748c3.552,1.018,9.951,2.824,10.325,3.83c0.374,1.006-0.339,5.83-0.339,5.83
			s-0.901,4.882-1.599,5.754c-0.697,0.873-7.521,0.604-11.33,0.482c-0.494,0.893-1.046,1.738-1.641,2.543
			c1.646,3.49,4.642,9.744,4.134,10.754c-0.508,1.01-4.562,3.871-4.562,3.871s-4.126,2.669-5.197,2.738
			c-1.07,0.068-5.314-5.203-7.684-8.108c-0.91,0.239-1.835,0.431-2.773,0.55c-1.281,3.586-3.502,9.924-4.467,10.203
			c-0.966,0.279-5.266-0.803-5.266-0.803s-4.159-1.223-4.846-1.935c-0.686-0.712-0.02-7.157,0.325-10.794
			c-0.715-0.496-1.384-1.029-2.019-1.606c-2.945,1.509-7.992,4.124-8.719,3.642c-0.727-0.483-2.627-4.156-2.627-4.156
			s-1.732-3.676-1.728-4.626c0.004-0.95,4.109-4.914,6.469-7.22c-0.138-0.836-0.23-1.691-0.273-2.56
			c-2.66-0.978-7.166-2.616-7.318-3.463c-0.152-0.848,0.835-4.819,0.835-4.819s1.097-3.891,1.658-4.601
			c0.562-0.711,5.432-0.832,8.303-0.92c0.439-0.746,0.923-1.471,1.434-2.162c-1.046-2.668-2.858-7.172-2.429-7.959
			c0.43-0.787,3.578-3.291,3.578-3.291s3.232-2.424,4.063-2.606c0.832-0.183,4.092,3.29,6.025,5.321
			c0.792-0.287,1.599-0.539,2.424-0.746c1.154-3.008,3.105-8.211,3.962-8.578c0.856-0.367,4.829-0.201,4.829-0.201
			s4.035,0.315,4.749,0.792C222.567,299.637,222.218,305.159,222.038,308.39L222.038,308.39z"/>
		<path id="_105821456" fill="#337497" d="M220.315,305.994c0.776,0.358,1.526,0.768,2.237,1.223c3.1-1.708,8.571-4.757,9.478-4.411
			c0.907,0.346,3.642,3.61,3.642,3.61s2.671,3.464,2.803,4.44c0.132,0.977-4.584,5.439-7.267,8.006
			c0.267,0.885,0.477,1.805,0.625,2.747c3.552,1.018,9.95,2.824,10.324,3.83c0.374,1.006-0.339,5.83-0.339,5.83
			s-0.9,4.882-1.598,5.755c-0.697,0.872-7.521,0.603-11.331,0.482c-0.494,0.893-1.045,1.736-1.64,2.543
			c1.646,3.49,4.642,9.744,4.134,10.754c-0.508,1.009-4.562,3.871-4.562,3.871s-4.127,2.668-5.197,2.736
			c-1.07,0.069-5.314-5.201-7.686-8.107c-0.909,0.239-1.834,0.432-2.773,0.551c-1.281,3.585-3.502,9.922-4.467,10.202
			c-0.965,0.279-5.265-0.802-5.265-0.802s-4.16-1.224-4.846-1.936c-0.686-0.711-0.02-7.158,0.325-10.794
			c-0.715-0.496-1.384-1.029-2.02-1.606c-2.944,1.51-7.991,4.125-8.718,3.642c-0.728-0.483-2.627-4.157-2.627-4.157
			s-1.732-3.674-1.729-4.625c0.005-0.95,4.11-4.914,6.47-7.22c-0.139-0.835-0.23-1.69-0.274-2.56
			c-2.659-0.978-7.165-2.617-7.317-3.465c-0.152-0.847,0.834-4.818,0.834-4.818s1.098-3.891,1.659-4.601
			c0.561-0.711,5.432-0.831,8.303-0.918c0.439-0.746,0.922-1.472,1.433-2.164c-1.045-2.666-2.857-7.171-2.429-7.958
			c0.43-0.787,3.579-3.29,3.579-3.29s3.231-2.425,4.063-2.607c0.831-0.182,4.091,3.29,6.025,5.321
			c0.791-0.288,1.598-0.539,2.424-0.746c1.153-3.008,3.105-8.211,3.961-8.578c0.857-0.368,4.83-0.201,4.83-0.201
			s4.035,0.315,4.749,0.791C220.845,297.241,220.495,302.763,220.315,305.994L220.315,305.994z"/>
		<path id="_105825344" fill="#2A5F7B" d="M212.719,320.612c-2.203-0.299-3.929,0.123-5.175,1.251
			c-1.242,1.122-2.122,2.788-2.624,5.003c-0.244,1.075-0.348,2.086-0.315,3.004c0.035,0.931,0.215,1.766,0.547,2.492
			c0.338,0.738,0.833,1.352,1.473,1.838c0.656,0.501,1.47,0.841,2.453,1.021c0.532,0.098,0.999,0.176,1.386,0.222
			c0.393,0.046,0.743,0.06,1.048,0.045c0.573-2.669,1.145-5.318,1.71-7.95c1.626,0.258,3.271,0.51,4.934,0.771
			c-0.783,3.816-1.582,7.671-2.392,11.571c-0.654,0.139-1.686,0.218-3.069,0.239c-1.368,0.023-3.013-0.155-4.894-0.531
			c-1.595-0.316-2.985-0.863-4.145-1.646c-1.143-0.772-2.038-1.74-2.691-2.904c-0.65-1.156-1.047-2.48-1.184-3.984
			c-0.139-1.497,0.011-3.135,0.433-4.933c0.424-1.804,1.056-3.357,1.892-4.65c0.842-1.306,1.823-2.372,2.951-3.21
			c1.127-0.833,2.373-1.412,3.731-1.752c1.371-0.342,2.778-0.426,4.23-0.249c0.991,0.121,1.88,0.296,2.66,0.53
			c0.789,0.236,1.455,0.479,2.008,0.729c0.565,0.256,1.015,0.509,1.366,0.747c0.347,0.236,0.601,0.418,0.745,0.545
			c-0.757,1.281-1.516,2.558-2.265,3.837c-0.602-0.457-1.299-0.879-2.105-1.26C214.627,321.009,213.718,320.747,212.719,320.612z"/>
		<path id="_105826160" fill="#FFFFFF" d="M211.632,319.025c-2.203-0.299-3.929,0.122-5.175,1.251
			c-1.242,1.122-2.122,2.788-2.624,5.002c-0.244,1.076-0.348,2.086-0.314,3.004c0.034,0.932,0.214,1.766,0.546,2.493
			c0.338,0.738,0.834,1.351,1.473,1.838c0.657,0.501,1.471,0.841,2.454,1.021c0.532,0.098,0.998,0.175,1.385,0.222
			c0.394,0.046,0.743,0.06,1.048,0.045c0.574-2.669,1.145-5.318,1.71-7.95c1.626,0.257,3.272,0.509,4.934,0.77
			c-0.784,3.816-1.583,7.672-2.393,11.572c-0.653,0.139-1.685,0.217-3.069,0.239c-1.368,0.022-3.013-0.155-4.895-0.531
			c-1.595-0.317-2.984-0.863-4.145-1.647c-1.142-0.772-2.038-1.741-2.691-2.905c-0.648-1.156-1.046-2.48-1.184-3.984
			c-0.139-1.496,0.012-3.133,0.434-4.932c0.424-1.804,1.055-3.357,1.891-4.65c0.843-1.307,1.824-2.373,2.952-3.21
			c1.126-0.833,2.372-1.413,3.731-1.752c1.371-0.342,2.777-0.427,4.23-0.249c0.991,0.121,1.88,0.295,2.66,0.53
			c0.789,0.235,1.455,0.479,2.007,0.729c0.566,0.255,1.016,0.509,1.367,0.747c0.347,0.236,0.6,0.417,0.745,0.544
			c-0.758,1.282-1.517,2.558-2.266,3.838c-0.601-0.458-1.298-0.88-2.104-1.261C213.54,319.421,212.63,319.159,211.632,319.025z"/>
		<path id="_105822680" fill="#E3E3E4" d="M137.25,323.878c11.72,0.82,23.097,8.504,25.517,20.463
			c3.148,15.548-4.324,33.35-20.028,38.69c-13.072,4.444-32.493-2.864-34.391-17.807c-2.514-19.772,7.493-37.922,28.226-41.314
			l0.336-0.055L137.25,323.878z"/>
		<path id="_105820592" fill="#FFFFFF" d="M137.046,326.798c0,0,19.457,1.359,22.852,18.122c3.394,16.763-6.11,31.259-18.102,35.336
			c-11.991,4.077-28.961-2.944-30.544-15.403C109.669,352.395,113.514,330.648,137.046,326.798L137.046,326.798z"/>
		<path id="_105825512" fill="#E3E3E4" d="M145.01,329.015c1.771,3.1,3.429,7.16,4.489,9.85c2.508,6.362,0.572,14.144-3.951,19.125
			l-0.642,0.708l-0.935,0.192c-1.75,0.361-3.532,0.418-5.302,0.183c-6.553-0.872-12.123-5.585-15.963-10.713
			c-4.212-5.622-10.201-18.009-4.906-24.536c6.579-8.106,11.227-28.346,20.07-33.324c9.047-5.094,23.45,5.655,24.917,14.772
			C163.923,312.315,151.706,323.51,145.01,329.015L145.01,329.015z"/>
		<path id="_105825416" fill="#FFFFFF" d="M143.38,356.021c0,0,6.788-7.475,3.395-16.083c-3.395-8.608-5.656-11.552-5.656-11.552
			s19.91-15.628,18.779-22.65c-1.132-7.023-13.348-16.763-20.589-12.686c-7.241,4.077-13.352,25.37-19.233,32.618
			C114.194,332.916,127.995,359.19,143.38,356.021L143.38,356.021z"/>
		<path id="_105824624" fill="#E3E3E4" d="M152.286,363.935c-7.761,8.118-19.79,26.583-31.729,27.623
			c-11.518,1.001-40.612-28.466-42.072-38.984c-1.306-9.414,17.266-31.342,25.993-33.382c7.196-1.681,24.632-2.299,28.605,5.354
			c4.546,8.751,24.564,28.344,19.735,38.61l-0.202,0.433L152.286,363.935z"/>
		<path id="_105825080" fill="#E3E3E4" d="M150.169,361.911c-4.979,5.208-19.458,25.821-29.866,26.728
			c-10.409,0.907-37.786-28.315-38.917-36.469c-1.132-8.155,16.97-28.54,23.758-30.126c6.788-1.586,22.399-1.811,25.341,3.852
			C133.425,331.557,153.789,354.21,150.169,361.911L150.169,361.911z"/>
		<path id="_105821048" fill="#FFFFFF" d="M150.169,361.911c-3.943,4.125-13.841,17.908-22.961,23.917
			c5.271-5.709,10.957-14.52,11.647-17.802c0.904-4.305-6.108-12.459-21.947-31.486c-6.113-7.343-11.007-11.175-14.719-13.113
			c1.117-0.706,2.12-1.188,2.954-1.383c6.788-1.586,22.399-1.811,25.341,3.852C133.425,331.557,153.789,354.21,150.169,361.911z"/>
		<path id="_105820664" fill="#E3E3E4" d="M106.152,341.269c-12.392,2.15-23.414-20.943-23.845-30.877
			c-0.509-11.693,20.196-23.19,29.501-18.865c4.608,2.142,10.831,11.91,13.496,16.223c2.083,3.369,9.466,15.744,9.466,19.502
			C134.77,334.431,112.426,340.936,106.152,341.269L106.152,341.269z"/>
		<path id="_105818744" fill="#FFFFFF" d="M105.821,338.352c-9.051,1.812-20.136-17.667-20.589-28.087
			c-0.453-10.422,19.006-19.027,25.341-16.083c6.335,2.944,21.269,29.673,21.269,33.069
			C131.842,330.649,113.968,338.126,105.821,338.352z"/>
		<path id="_105812576" fill="#E3E3E4" d="M105.821,338.352c-8.365,1.675-18.463-14.837-20.303-25.574
			c1.811-4.112,6.874-13.889,14.195-14.067c9.275-0.227,16.065,19.709,16.743,26.504c0.678,6.795-3.846,9.061-7.692,11.552
			c-0.912,0.59-1.812,1.116-2.652,1.576L105.821,338.352z"/>
		<path id="_105812816" fill="#DBDCDE" d="M252.652,514.354l7.241-57.534c0,0,23.984-41.679,23.531-50.286
			c-0.453-8.607,0.905-44.85,3.168-53.005c2.263-8.154,14.932-24.917,14.932-24.917s25.795-0.904,37.108-3.17
			c11.312-2.268,13.575-0.454,13.575-0.454l22.174,42.131l-5.884,31.261l5.884-10.874c0,0,26.245,46.663,33.033,58.895
			c6.788,12.232,7.693,19.027,7.693,19.027s-4.074,28.539-3.621,38.054c0.453,9.514,0.453,12.232,0.453,12.232l-25.794,5.437
			l-36.201-3.624c0,0-29.416,11.779-45.253,11.779S252.652,514.354,252.652,514.354L252.652,514.354z"/>
		<path id="_105818024" fill="#9FA2A5" d="M387.096,520.948l-0.949,0.201l-31.24-3.128l0.016-0.043l7.693-12.232l5.43-22.652
			C368.046,483.094,381.272,508.72,387.096,520.948z"/>
		<path id="_105817568" fill="#9FA2A5" d="M252.652,514.354l7.241-57.534c0,0,23.984-41.679,23.531-50.286
			c-0.453-8.607,0.905-44.85,3.168-53.005c2.263-8.154,14.932-24.917,14.932-24.917s25.795-0.904,37.108-3.17
			c0.944-0.19,1.819-0.346,2.641-0.482c-4.492,6.093-9.891,15.025-8.524,21.32c2.263,10.421-13.123,37.6-13.123,42.584
			s4.978,30.353,4.978,30.353s-12.67,33.978-11.312,45.757c0.981,8.511,9.755,42.091,14.551,60.069
			c-8.037,2.31-16.713,4.261-23.149,4.261C288.855,529.305,252.652,514.354,252.652,514.354L252.652,514.354z"/>
		<polygon id="_105820952" fill="#E9EAEB" points="335.245,413.102 363.754,412.874 370.315,419.442 355.834,462.711
			341.354,445.493 337.281,428.731 		"/>
		<polygon id="_105823832" fill="#9FA2A5" points="335.245,413.102 337.153,413.087 356.965,422.391 363.98,422.391
			355.383,451.837 355.89,462.538 355.834,462.711 341.354,445.493 337.281,428.731 		"/>
		<path id="_105817592" fill="#354C58" d="M274.409,96.211c3.89-9.924,9.998-18.294,17.591-24.927
			c7.975-6.963,17.593-12.01,28.011-14.924l0.703,2.5c-10.056,2.815-19.332,7.678-27.011,14.381
			c-7.291,6.367-13.151,14.4-16.883,23.917L274.409,96.211z"/>
		<path id="_105824504" fill="#F26522" d="M320.909,45.373c6.521-2.548,13.892,0.721,16.464,7.301
			c2.571,6.58-0.631,13.98-7.152,16.529c-6.521,2.548-13.892-0.721-16.463-7.301C311.186,55.321,314.388,47.921,320.909,45.373z"/>
		<path id="_105825800" fill="#F98C19" d="M321.976,48.1c5.014-1.959,10.687,0.566,12.669,5.64c1.71,4.376,0.112,9.218-3.576,11.724
			c1.841-2.61,2.38-6.082,1.121-9.305c-1.982-5.074-7.655-7.599-12.669-5.639c-0.693,0.271-1.332,0.607-1.924,1.01
			C318.656,50.025,320.142,48.816,321.976,48.1L321.976,48.1z"/>
		<path id="_105820976" fill="#28353C" d="M239.452,311.043c-3.439-17.939,12.597-39.626,25.119-50.971l0.642-0.581l6.299-1.022
			l1.007,0.78c1.962,1.524,4.005,3.454,5.618,5.324c4.214,4.884,6.066,11.613-2.064,13.647
			c-10.561,2.643-17.387,12.915-14.83,23.664c1.227,5.16,5.017,11.501,11.177,11.121l3.93-0.328l-5.365,24.709
			c-1.239,5.705-13.982-1.77-15.722-2.878C246.736,329.077,241.358,320.981,239.452,311.043L239.452,311.043z"/>
		<path id="_105824984" fill="#354C58" d="M266.538,262.244c0,0-28.508,25.824-24.209,48.248
			c4.299,22.425,25.794,26.275,25.794,26.275l4.525-20.84c0,0-10.86,0.908-14.254-13.363c-3.394-14.272,7.013-24.692,16.968-27.183
			s-4.64-13.816-4.64-13.816L266.538,262.244z"/>
		<path id="_105819152" fill="#337497" d="M272.785,317.33l-12.805-6.794l-0.446-0.912c-1.837-3.758-2.69-9.162-2.443-13.27
			c0.649-10.815,7.721-18.145,17.175-22.602l0.98-0.462l1.044,0.286c13.809,3.787,56.908,16.949,63.555,28.925
			c7.718,13.908,3.324,27.882-10.698,35.272c-7.21,3.798-16.561,6.826-24.327,9.396c-9.632,3.188-19.418,6.189-29.184,8.951
			l-1.941,0.549l-24.331-32.653L272.785,317.33L272.785,317.33z"/>
		<path id="_105817088" fill="#65A9CC" d="M272.008,275.721c0,0,58.489,15.968,65.275,28.201
			c6.786,12.231,3.396,24.462-9.503,31.259c-12.897,6.796-52.943,18.121-52.943,18.121l-20.591-27.635l53.171-15.178
			c0,0-6.788-0.678-18.553,2.493c-11.766,3.171-11.766,3.171-11.766,3.171l-18.893-8.949
			C258.206,307.204,248.476,286.82,272.008,275.721z"/>
		<path id="_105821168" fill="#83BAD7" d="M282.866,284.961c17.247,6.556,44.129,17.764,47.478,25.076
			c4.979,10.872-0.905,16.308-16.29,21.745c-8.418,2.973-19.007,5.672-26.867,7.511c0.732,2.223,1.28,4.537,1.564,6.847
			c4.767-1.463,9.517-2.974,14.228-4.534c7.426-2.458,16.544-5.385,23.438-9.018c11.116-5.857,14.429-16.209,8.307-27.247
			c-3.797-6.842-28.934-16.055-47.073-21.869C286.059,283.984,284.465,284.479,282.866,284.961z"/>
		<path id="_105820880" fill="#E3E3E4" d="M243.754,338.763c-2.046-6.631-1.776-16.182,5.783-19.212
			c11.858-4.75,26.04,3.56,31.921,13.962c4.938,8.73,8.366,23.872-3.119,29.238c-8.383,3.914-28.487-17.045-33.924-22.85
			l-0.462-0.493L243.754,338.763z"/>
		<path id="_105820256" fill="#FFFFFF" d="M246.552,337.901c0,0-3.844-12.457,4.074-15.63c7.918-3.173,21.493,0.679,28.281,12.684
			c6.788,12.005,4.979,21.973-1.81,25.143c-6.788,3.171-30.545-22.197-30.545-22.197H246.552z"/>
		<path id="_105824120" fill="#E3E3E4" d="M286.809,373.723c3.105-0.886,6.795-0.312,9.569,0.911
			c1.815,0.799,0.854,0.149,2.181,1.502c3.259,3.322,2.458,8.797,0.958,12.735c-1.905,5.001-5.521,9.622-9.829,12.776
			c-10.739,7.867-34.579,2.867-44.976-3.996c-12.043-7.95-8.979-40.195-7.166-52.697c0.944-6.516,4.499-16.6,11.325-19.293
			l0.137-0.053l0.14-0.04c16.344-4.62,28.63,12.571,33.407,25.804C285.047,357.97,286.652,366.728,286.809,373.723z"/>
		<path id="_105821024" fill="#FFFFFF" d="M249.947,328.386c0,0-7.467,2.945-9.503,16.988c-2.035,14.043-4.069,43.262,5.884,49.832
			c9.953,6.57,32.355,10.873,41.631,4.078c9.275-6.795,12.896-19.479,7.239-21.971c-5.656-2.493-9.275,0-9.275,0
			s0.905,7.475-3.62,11.551c-4.525,4.078-6.11,3.625-6.11,3.625s7.918-7.248,7.692-18.574c-0.225-11.325-4.071-21.52-4.071-21.52
			S269.179,322.948,249.947,328.386L249.947,328.386z"/>
		<path id="_105822824" fill="#E3E3E4" d="M250.94,331.149c-4.543,2.141-6.967,10.297-7.598,14.645
			c-1.374,9.483-4.363,41.053,4.6,46.968c3.236,2.136,8.521,4.2,14.266,5.542c-3.046-3.395-10.119-12.754-10.827-27.108
			c-0.747-15.173,5-33.903,7.012-39.936C256.049,330.558,253.557,330.448,250.94,331.149L250.94,331.149z"/>
		<path id="_105812864" fill="#65A9CC" d="M290.549,249.379c-5.727,4.406-18.414,8.364-24.702,10.035
			c-30.873,8.203-67.972,9.279-99.677,8.703l-1.417-0.026l-0.859-1.128c-16.036-21.058-28.711-53.812-29.557-80.055
			c-0.54-16.761,3.681-33.4,13.882-46.879c3.702-4.893,9.791-11.154,15.321-14.266c21.586-10.596,52.18-18.973,75.95-19.748
			c14.357-0.467,29.113,1.472,42.079,7.961c11.014,5.513,19.565,13.922,25.735,24.535c3.129,5.385,5.549,11.166,7.372,17.117
			c4.144,13.519,5.382,28.399,4.429,42.479c-0.619,9.174-2.522,22.156-6.84,30.387C308.385,235.895,299.736,247.582,290.549,249.379
			L290.549,249.379z"/>
		<path id="_105824144" fill="#DEEDF6" d="M166.223,265.188c0,0-27.603-36.244-28.96-78.375
			c-1.358-42.131,27.604-58.44,27.604-58.44s70.139-34.43,115.391-11.779c45.252,22.651,38.919,92.416,29.415,110.539
			c-9.504,18.122-20.364,19.48-20.364,19.48S265.777,266.999,166.223,265.188z"/>
		<path id="_105822560" fill="#191919" d="M183.378,214.683l6.565,30.127l-3.054,0.493c-7.708,1.248-13.896-5.027-16.149-11.816
			c-2.729-8.215,1.382-15.886,9.69-18.039L183.378,214.683z"/>
		<path id="_105825992" fill="#D3AE8A" d="M181.166,218.282c0,0-11.406,2.958-7.648,14.282c3.758,11.325,12.904,9.848,12.904,9.848
			L181.166,218.282z"/>
		<path id="_105815072" fill="#191919" d="M304.172,185.037c7.733-1.266,14.486,2.666,15.276,11.787
			c1.028,11.922-5.338,17.394-14.14,23.184c-1.088,1.451-4.761,11.354-5.707,13.42c-3.828,8.347-8.832,16.022-15.984,21.905
			c-9.462,7.788-24.268,14.797-36.47,17.11c-19.252,3.53-32.266,4.428-48.888-8.724c-16.64-13.168-25.188-53.69-23.441-73.96
			c1.796-21.023,10.775-36.935,29.683-47.203c22.203-12.059,55.906-17.683,76.345,0.771c8.829,7.973,15.29,18.242,19.521,29.306
			C301.283,175.027,303.233,180.796,304.172,185.037L304.172,185.037z"/>
		<path id="_105823976" fill="#FFCC99" d="M246.615,269.561c-15.271,2.803-29.345,5.466-46.538-8.138
			c-17.193-13.605-23.714-55.437-22.344-71.417c1.37-15.98,7.215-33.499,28.169-44.878c20.954-11.379,53.497-17.22,72.98,0.376
			c19.484,17.596,22.884,43.16,22.884,43.16s13.616-4.84,14.762,8.412c1.146,13.252-9.976,18.613-12.986,20.587
			c-3.011,1.975-6.264,22.638-21.786,35.409C266.232,265.844,246.615,269.561,246.615,269.561z"/>
		<path id="_105812720" fill="#D3AE8A" d="M177.589,196.614c-0.061-2.498-0.013-4.732,0.148-6.606
			c1.123-13.149,5.29-27.337,18.398-38.29c10.809-2.212,22.023-4.439,25.605-5.225c7.239-1.586,45.026-3.397,50.229-2.944
			c2.657,0.232,8.087,4.188,12.765,8.001c3.33,3.92,6.034,8.025,8.223,12.016l-0.398,34.8c0,0-9.955,9.967-14.027,7.703
			c-4.072-2.265-0.227-18.122-2.489-26.503c-2.263-8.381-11.087-4.53-28.508,2.944c-17.422,7.475-27.15,5.89-29.866,5.21
			c-2.716-0.68,2.716-5.21,2.716-5.21s-6.337,0.453-24.437,9.514C189.68,195.161,183.281,196.374,177.589,196.614z"/>
		<path id="_105819512" fill="#D3AE8A" d="M222.352,239.295c0,0,13.846-0.302,22.643,7.941c8.798,8.243,10.432,18.781,10.513,17.424
			c0.082-1.358-0.735-25.462-1.094-27.071c-0.357-1.609-5.198-7.8-5.198-7.8s-10.256,4.602-16.464,6.045
			C226.544,237.278,222.352,239.295,222.352,239.295z"/>
		<path id="_105820328" fill="#191919" d="M225.133,222.132c0.699,0.144,1.151,0.832,1.008,1.531
			c-0.145,0.7-0.832,1.152-1.532,1.008c-0.029-0.006-11.622-2.098-9.559-7.048c1.546-3.705,7.429-8.522,7.443-8.533
			c0.554-0.452,1.372-0.369,1.824,0.186c0.452,0.554,0.368,1.372-0.186,1.824c-0.015,0.011-5.382,4.404-6.682,7.521
			C216.67,220.491,225.108,222.127,225.133,222.132L225.133,222.132z"/>
		<path id="_105817952" fill="#191919" d="M234.88,235.776c0,0,8.765,2.596,13.296,7.71c4.531,5.115,5.522,9.564,5.522,9.564
			s9.401-7.208,10.49-18.643c1.089-11.435-2.174-17.486-2.174-17.486s-6.624,2.833-12.195,8.351
			C244.248,230.789,234.681,235.663,234.88,235.776L234.88,235.776z"/>
		<path id="_105826592" fill="#FF99CC" d="M246.555,261.2c0,0-4.023-6.901-0.064-15.746c3.958-8.845,17.786-10.839,17.786-10.839
			S266.429,252.505,246.555,261.2z"/>
		<path id="_105811328" fill="#C785A6" d="M254.314,237.899c4.882-2.544,9.962-3.28,9.962-3.28s0.519,4.353-1.335,9.806
			C260.115,239.735,256.873,238.228,254.314,237.899L254.314,237.899z"/>
		<path id="_105823760" fill="#191919" d="M210.718,242.966c-0.709,0.101-1.368-0.393-1.469-1.102
			c-0.101-0.709,0.394-1.369,1.103-1.469c0.066-0.008,23.209-3.178,34.604-12.922c5.883-5.03,9.737-8.258,12.329-10.002
			c3.275-2.203,5.047-2.326,6.317-0.71l0.029,0.042l0.012,0.016l0.019,0.027c0.079,0.109,0.15,0.234,0.217,0.369l0.001-0.001
			c0.807,1.662,2.253,9.234,1.955,17.467c-0.303,8.328-2.352,17.472-8.538,22.337l0.001,0.004c-0.85,0.668-1.786,1.261-2.806,1.755
			c-15.87,7.708-20.3,4.006-20.311,3.997c-0.585-0.414-0.725-1.227-0.311-1.812c0.415-0.585,1.227-0.725,1.813-0.31
			c0.009,0.006,3.234,2.8,17.676-4.214c0.839-0.406,1.615-0.9,2.329-1.46l0.001,0.001l0.004-0.001
			c5.451-4.285,7.27-12.686,7.549-20.39c0.282-7.8-0.987-14.769-1.702-16.241l0.002-0.001l-0.001-0.003
			c-0.244-0.253-1.026,0.089-2.804,1.285c-2.501,1.681-6.295,4.861-12.097,9.822C234.664,239.69,210.786,242.956,210.718,242.966
			L210.718,242.966z"/>
		<path id="_105819800" fill="#191919" d="M193.621,200.477c-0.289,0.751-1.137,1.124-1.888,0.836
			c-0.751-0.289-1.124-1.137-0.835-1.887c0.025-0.069,9.767-24.952,21.32-2.986c0.375,0.712,0.101,1.597-0.612,1.972
			c-0.713,0.375-1.597,0.1-1.973-0.612C201.053,181.487,193.639,200.425,193.621,200.477L193.621,200.477z M299.184,213.22
			c-0.571,0.571-1.502,0.571-2.072,0c-0.571-0.571-0.571-1.502,0-2.073c0.016-0.016,5.449-5.381,1.602-9.694
			c-2.65,1.178-4.418,3.438-4.427,3.449c-0.491,0.637-1.412,0.754-2.048,0.263c-0.637-0.491-0.755-1.411-0.264-2.048
			c0.018-0.024,6.803-8.654,14.912-3.855c0.693,0.41,0.924,1.308,0.514,2.002c-0.41,0.694-1.308,0.924-2.002,0.514
			c-1.225-0.725-2.418-1.021-3.542-1.028C305.733,206.76,299.205,213.199,299.184,213.22L299.184,213.22z M259.603,205.537
			c0.792,0.142,1.319,0.901,1.178,1.694c-0.142,0.792-0.901,1.32-1.693,1.178c-0.016-0.001-5.932-1.06-9.06,0.152
			c-0.785,0.303-1.449,0.597-1.97,0.825l0.001,0.003c-0.951,0.42-1.536,0.676-2.157,0.642l-0.007-0.002v0.002
			c-1.519-0.088-1.804-0.863-1.696-2.691l0.005-0.045l0.007-0.076l0.01-0.062h-0.005c0.165-1.216,2.189-5.352,5.53-8.959
			c3.377-3.645,8.149-6.923,13.855-6.587h0.042c0.328,0.02,0.66,0.055,0.987,0.098c0.8,0.106,1.36,0.842,1.255,1.642
			c-0.105,0.799-0.843,1.359-1.642,1.254c-0.251-0.033-0.499-0.062-0.737-0.078h-0.071h-0.007c-4.645-0.271-8.656,2.535-11.543,5.65
			c-2.186,2.358-3.7,4.804-4.379,6.264c0.414-0.179,0.893-0.377,1.471-0.603C252.858,204.333,259.586,205.535,259.603,205.537z"/>
		<path id="_105821672" fill="#191919" d="M203.854,204.141c2.468,0,4.84,3.093,5.297,6.909c0.458,3.815-1.172,6.909-3.64,6.909
			c-2.468,0-4.839-3.093-5.297-6.909C199.758,207.234,201.387,204.141,203.854,204.141z"/>
		<path id="_105821384" fill="#191919" d="M146.548,170.504c0,0,16.064,19.257,40.727,15.404
			c24.662-3.852,45.477-17.442,45.477-17.442s-8.598,7.926-9.729,10.645c-1.131,2.719,18.1,2.266,31.449-3.397
			c13.35-5.664,21.269-6.117,23.531-1.586c2.263,4.531,4.525,19.708,3.393,27.41c-1.131,7.702,2.489,9.966,6.788,6.115
			c4.299-3.85,10.407-18.802,16.064-20.386c5.656-1.585,10.182,3.397,10.182,3.397s7.69-29.447,0.225-43.943
			c-7.466-14.497-37.105-36.471-75.796-28.768c-38.69,7.703-37.105,7.476-51.133,22.425
			C173.7,155.328,171.662,163.029,146.548,170.504L146.548,170.504z"/>
		<path id="_105818096" fill="#337497" d="M143.202,144.359c2.071-4.827,6.828-10.741,10.288-14.517
			c11.097-12.111,25.702-21.537,40.432-28.576c33.945-16.219,82.627-17.463,115.843,1.458
			c28.551,16.264,36.608,57.902,23.853,86.637c-3.732,8.411-6.883,17.212-9.785,25.941c-5.455,16.41-10.374,33.534-14.475,50.353
			l-0.254,1.043l-0.867,0.631c-10.957,7.977-40.059,14.007-52.826,16.15c-26.254,4.404-59.992,3.152-86.279-1.361l-1.46-0.253
			l-16.624-33.277l6.158,1.524c4.614,1.135,10.122,1.74,14.825,2.214c14.625,1.476,29.622,1.543,44.29,0.875
			c6.781-0.31,13.559-0.957,20.293-1.804c21.421-2.7,44.651-7.483,65.594-13.458c1.141-4.468,4.141-13.166,4.672-14.854
			c5.044-16.066,8.995-57.826,0.282-72.367c-5.25-8.758-12.304-14.129-21.793-17.802c-15.346-5.937-35.434-6.748-51.692-6.598
			c-20.765,0.192-41.691,4.31-61.285,11.107c-6.254,2.167-12.445,4.629-18.451,7.414c-1.667,0.773-5.412,2.491-6.454,3.187
			l-9.175,6.117L143.202,144.359L143.202,144.359z"/>
		<path id="_105826496" fill="#65A9CC" d="M156.503,252.956l13.125,26.275c0,0,46.156,7.928,85.298,1.36
			c39.142-6.568,51.586-15.629,51.586-15.629s11.76-48.247,24.43-76.788c12.67-28.541,3.619-67.953-22.627-82.904
			c-26.245-14.951-73.309-20.386-113.13-1.359c-39.821,19.027-49.323,41.679-49.323,41.679s38.915-21.746,87.787-22.199
			c48.872-0.453,66.522,9.968,76.024,25.823c9.502,15.857,4.979,58.894,0,74.75c-4.979,15.856-4.979,16.309-4.979,16.309
			s-48.419,14.043-88.241,15.856C176.632,257.94,156.503,252.956,156.503,252.956L156.503,252.956z"/>
		<path id="_105814208" fill="#4A99C4" d="M166.453,266.323l0.164,0.327c20.857,3.638,44.697,4.408,65.559,2.887
			c18.397-1.341,39.384-6.465,58.266-13.088c-1.583,0.436-3.148,0.851-4.662,1.244c-17.663,4.576-35.967,7.091-54.135,8.575
			C212.155,267.862,187.163,269.338,166.453,266.323z"/>
		<path id="_105820472" fill="#83BAD7" d="M328.575,186.256c11.084-25.958,3.948-63.827-21.709-78.442
			c-21.436-12.211-49.869-15.508-75.995-11.538c11.989-0.497,25.981,0.618,41.326,4.916c49.324,13.816,58.373,50.514,58.6,64.104
			C330.92,172.666,329.709,180.565,328.575,186.256L328.575,186.256z"/>
		<path id="_105824216" fill="#E3E3E4" d="M301.8,230.565c4.726-18.625,9.762-50.433,4.611-67.837
			c-7.805-26.374-36.087-32.473-60.419-31.43c-8.954,0.386-17.958,1.476-26.799,2.908c-11.636,1.886-23.32,4.418-34.676,7.582
			c-6.625,1.848-15.937,4.498-21.948,7.833c-7.224,4.01-15.204,10.286-21.068,16.159l-1.809,1.811l-2.036-1.55
			c-3.144-2.391-3.386-8.461-3.005-12.014c0.624-5.859,3.184-11.446,7.545-15.463c7.626-7.023,21.43-13.183,31.022-16.691
			c20.128-7.364,41.912-10.945,63.288-11.602c29.931-0.92,71.844,5.551,86.015,36.358c8.115,17.641-0.014,58.31-5.271,76.995
			c-1.486,5.278-4.094,18.458-8.178,22.165c-0.704,0.64-1.487,1.163-2.328,1.605c-6.118,3.223-15.065,5.745-21.701,7.465
			c-17.411,4.51-35.739,7.028-53.639,8.492c-21.31,1.743-53.548,3.402-74.709-1.891c-6.905-1.727-11.116-11.749-6.186-17.063
			c1.916-2.067,5.526-1.759,8.083-1.55c4.48,0.365,8.979,0.988,13.462,1.418c18.01,1.733,35.867,1.58,53.895,0.11
			c19.157-1.562,38.491-4.29,57.218-8.678C289.175,234.289,295.862,232.644,301.8,230.565L301.8,230.565z"/>
		<path id="_105824936" fill="#FFFFFF" d="M139.429,163.711c-2.829-2.152-3.733-15.18,4.752-22.994
			c8.484-7.814,40.828-25.934,92.416-27.52c51.588-1.587,75.345,17.44,83.264,34.656c7.92,17.216-0.904,58.893-5.43,74.976
			c-4.525,16.083-4.752,19.708-9.051,21.973c-4.299,2.264-27.152,11.778-74.213,15.629c-47.062,3.85-68.33-0.455-73.76-1.813
			c-5.431-1.358-7.691-9.061-4.75-12.232c2.94-3.171,23.531,4.984,73.532,0.907c50.002-4.078,78.06-14.497,78.06-14.497
			s12.209-46.435,4.97-70.898c-7.24-24.464-31.678-34.884-63.353-33.525c-31.676,1.359-73.294,12.35-84.717,18.688
			C149.727,153.399,139.429,163.711,139.429,163.711z"/>
		<path id="_105820808" fill="#E3E3E4" d="M166.972,288.281c-3.408-0.124-5.949-3.745-7.108-6.582
			c-1.365-3.34-1.643-7.959,0.139-11.229l1.022-1.875l2.098,0.399c21.342,4.06,47.793,5.031,69.266,3.465
			c24.656-1.796,55.11-10.682,77.773-20.601l3.375-1.477l0.678,3.621c0.479,2.557,0.65,5.608,0.5,8.187
			c-0.202,3.472-2.712,7.212-5.275,9.492l-0.275,0.246l-0.329,0.169c-5.116,2.639-11.289,4.903-16.7,6.79
			c-15.364,5.356-31.479,9.182-47.516,11.843C221.508,294.564,190.082,294.181,166.972,288.281z"/>
		<path id="_105818432" fill="#FFFFFF" d="M162.575,271.871c0,0-2.036,3.737,0,8.72c2.036,4.984,4.752,4.757,4.752,4.757
			s35.86,9.286,76.812,2.491c40.953-6.795,63.354-18.347,63.354-18.347s4.074-3.624,4.299-7.475
			c0.225-3.851-0.455-7.477-0.455-7.477s-41.403,18.121-78.735,20.84C195.269,278.1,162.575,271.871,162.575,271.871z"/>
	</g>
</g>
</svg>
